<?xml version="1.0" encoding="UTF-8" standalone="no"?>
<!-- Created with Inkscape (http://www.inkscape.org/) -->

<svg
   width="48"
   height="48"
   viewBox="0 0 12.7 12.7"
   version="1.1"
   id="svg1"
   xmlns="http://www.w3.org/2000/svg"
   xmlns:svg="http://www.w3.org/2000/svg">
  <defs
     id="defs1" />
  <g
     id="layer1">
    <g
       id="g31"
       transform="rotate(-12.47521,13.514855,17.076696)">
      <g
         id="g25"
         transform="rotate(-126.22612,6.0337737,8.0305186)">
        <circle
           style="fill:#ffffff;fill-opacity:1;stroke:#000000;stroke-width:0.228;stroke-dasharray:none;stroke-opacity:1"
           id="path8"
           cx="3.4434862"
           cy="9.3234491"
           r="0.38169715" />
        <circle
           style="fill:#ffffff;fill-opacity:1;stroke:#000000;stroke-width:0.2486;stroke-dasharray:none;stroke-opacity:1"
           id="circle20"
           cx="4.6306591"
           cy="8.7454529"
           r="0.47869456" />
      </g>
      <g
         id="g29"
         transform="matrix(2.2125586,-0.66781712,0.66781712,2.2125586,-13.501563,-3.5628262)">
        <g
           id="g28"
           transform="matrix(0.67534132,0,0,0.67534132,2.1763856,2.3531867)">
          <rect
             style="fill:#ffffff;fill-opacity:1;stroke:#000000;stroke-width:0.148073;stroke-linecap:square;stroke-linejoin:round;stroke-dasharray:none;stroke-opacity:1;paint-order:markers fill stroke"
             id="rect27"
             width="1.2151902"
             height="0.51848119"
             x="6.2706885"
             y="6.7633772"
             ry="0.2592406" />
          <rect
             style="fill:#ffffff;fill-opacity:1;stroke:#000000;stroke-width:0.148073;stroke-linecap:square;stroke-linejoin:round;stroke-dasharray:none;stroke-opacity:1;paint-order:markers fill stroke"
             id="rect28"
             width="1.2151902"
             height="0.51848119"
             x="6.2706885"
             y="6.3421111"
             ry="0.2592406" />
        </g>
        <rect
           style="fill:#ffffff;fill-opacity:1;stroke:#000000;stroke-width:0.101118;stroke-linecap:square;stroke-linejoin:round;stroke-dasharray:none;stroke-opacity:1;paint-order:markers fill stroke"
           id="rect29"
           width="1.4961857"
           height="1.7164321"
           x="6.0662184"
           y="4.9597697"
           ry="0.66789418"
           rx="0.66789418" />
        <path
           style="fill:none;fill-opacity:1;stroke:#000000;stroke-width:0.082;stroke-linecap:square;stroke-linejoin:round;stroke-dasharray:none;stroke-opacity:1;paint-order:markers fill stroke"
           d="m 6.6838534,6.5770476 c 0,-0.2754429 0,-0.5508861 -0.039157,-0.6886076 -0.039157,-0.1377216 -0.1174673,-0.1377216 -0.1566235,-0.099915 -0.039156,0.037807 -0.039156,0.1134171 0.081015,0.151223 0.1201712,0.037806 0.3605042,0.037806 0.4806729,-0.0027 C 7.1699295,5.8965399 7.1699295,5.8155283 7.132123,5.7750221 7.0943165,5.7345158 7.0187059,5.7345158 6.9809,5.8722402 6.943094,6.0099645 6.943094,6.2854021 6.943094,6.4258236 c 0,0.1404214 0,0.1458244 0,0.1512244"
           id="path29"
           transform="translate(0.00810127,-0.01620254)" />
      </g>
    </g>
    <g
       id="g5"
       transform="matrix(-1.0054325,0,0,0.99991232,15.629588,-1.5873017)">
      <g
         id="g2"
         transform="rotate(-126.22612,6.0337737,8.0305186)">
        <circle
           style="fill:#ffffff;fill-opacity:1;stroke:#000000;stroke-width:0.228;stroke-dasharray:none;stroke-opacity:1"
           id="circle1"
           cx="3.4434862"
           cy="9.3234491"
           r="0.38169715" />
        <circle
           style="fill:#ffffff;fill-opacity:1;stroke:#000000;stroke-width:0.2486;stroke-dasharray:none;stroke-opacity:1"
           id="circle2"
           cx="4.6306591"
           cy="8.7454529"
           r="0.47869456" />
      </g>
      <g
         id="g4"
         transform="matrix(2.2125586,-0.66781712,0.66781712,2.2125586,-13.501563,-3.5628262)">
        <g
           id="g3"
           transform="matrix(0.67534132,0,0,0.67534132,2.1763856,2.3531867)">
          <rect
             style="fill:#ffffff;fill-opacity:1;stroke:#000000;stroke-width:0.148073;stroke-linecap:square;stroke-linejoin:round;stroke-dasharray:none;stroke-opacity:1;paint-order:markers fill stroke"
             id="rect2"
             width="1.2151902"
             height="0.51848119"
             x="6.2706885"
             y="6.7633772"
             ry="0.2592406" />
          <rect
             style="fill:#ffffff;fill-opacity:1;stroke:#000000;stroke-width:0.148073;stroke-linecap:square;stroke-linejoin:round;stroke-dasharray:none;stroke-opacity:1;paint-order:markers fill stroke"
             id="rect3"
             width="1.2151902"
             height="0.51848119"
             x="6.2706885"
             y="6.3421111"
             ry="0.2592406" />
        </g>
        <rect
           style="fill:#ffffff;fill-opacity:1;stroke:#000000;stroke-width:0.101118;stroke-linecap:square;stroke-linejoin:round;stroke-dasharray:none;stroke-opacity:1;paint-order:markers fill stroke"
           id="rect4"
           width="1.4961857"
           height="1.7164321"
           x="6.0662184"
           y="4.9597697"
           ry="0.66789418"
           rx="0.66789418" />
        <path
           style="fill:none;fill-opacity:1;stroke:#000000;stroke-width:0.082;stroke-linecap:square;stroke-linejoin:round;stroke-dasharray:none;stroke-opacity:1;paint-order:markers fill stroke"
           d="m 6.6838534,6.5770476 c 0,-0.2754429 0,-0.5508861 -0.039157,-0.6886076 -0.039157,-0.1377216 -0.1174673,-0.1377216 -0.1566235,-0.099915 -0.039156,0.037807 -0.039156,0.1134171 0.081015,0.151223 0.1201712,0.037806 0.3605042,0.037806 0.4806729,-0.0027 C 7.1699295,5.8965399 7.1699295,5.8155283 7.132123,5.7750221 7.0943165,5.7345158 7.0187059,5.7345158 6.9809,5.8722402 6.943094,6.0099645 6.943094,6.2854021 6.943094,6.4258236 c 0,0.1404214 0,0.1458244 0,0.1512244"
           id="path4"
           transform="translate(0.00810127,-0.01620254)" />
      </g>
    </g>
  </g>
</svg>
